# xmcd
#
# Track frame offsets:
#	150
#	15255
#	34380
#	50670
#	70555
#	86800
#	102585
#	118545
#	136670
#	151345
#	167085
#	184430
#	201450
#	217720
#	230805
#	247765
#
# Disc length: 3467 seconds
#
# Revision: 1
# Processed by: cddbd v1.5.1PL0 Copyright (c) Steve Scherf et al.
# Submitted via: audiograbber 1.83.01
#
DISCID=d90d8910
DTITLE=Various Artist - Beach Boogie Train - All Aboard
DYEAR=1900
DGENRE=Beach Music
TTITLE0=Dudley Birch - Stop, Look My Way
TTITLE1=Coastline - New Old Songs
TTITLE2=Heaven Davis - You Are My Sunshine
TTITLE3=Rue Davis - Cutie
TTITLE4=Jay Spell - Seventh Son
TTITLE5=Kenna West - Right Now
TTITLE6=Jack Mack - Round And Round
TTITLE7=Vince McDougald - Uncloudy Day
TTITLE8=Wendy Teeter Younts - You're The Man
TTITLE9=Donnie and Susan Trexler - Love Break
TTITLE10=East Coast Boppers - Shaggin' USA
TTITLE11=Jean Terrell - Too Many Memories
TTITLE12=Bo Schronce - Beverly Hills Boogie
TTITLE13=Kerry Michaels - That's Enough
TTITLE14=Barbara Carr - Right Kind Of Love
TTITLE15=Smokehouse - Mr. So and So
EXTD=
EXTT0=
EXTT1=
EXTT2=
EXTT3=
EXTT4=
EXTT5=
EXTT6=
EXTT7=
EXTT8=
EXTT9=
EXTT10=
EXTT11=
EXTT12=
EXTT13=
EXTT14=
EXTT15=
PLAYORDER=
